{
    "asset" : {
        "generator" : "Khronos glTF Blender I/O v1.8.19",
        "version" : "2.0"
    },
    "scene" : 0,
    "scenes" : [
        {
            "name" : "Scene",
            "nodes" : [
                28
            ]
        }
    ],
    "nodes" : [
        {
            "name" : "toe1B.L",
            "rotation" : [
                0.2106923758983612,
                -1.5329521829698933e-07,
                2.9657513778147404e-08,
                0.9775524139404297
            ],
            "translation" : [
                3.9406412355447173e-08,
                0.3228242099285126,
                -5.48196510408161e-09
            ]
        },
        {
            "children" : [
                0
            ],
            "name" : "toe1A.L",
            "rotation" : [
                0.10838053375482559,
                -0.8232621550559998,
                0.5313105583190918,
                0.1679351031780243
            ],
            "scale" : [
                0.9999998211860657,
                0.9999997019767761,
                1
            ],
            "translation" : [
                -0.1310267448425293,
                0.08846540004014969,
                -0.16309309005737305
            ]
        },
        {
            "name" : "toe2B.L",
            "rotation" : [
                0.2018202394247055,
                3.410827176253406e-08,
                -1.9206142098937562e-07,
                0.9794225692749023
            ],
            "scale" : [
                1.0000001192092896,
                1.0000003576278687,
                1.0000003576278687
            ],
            "translation" : [
                -4.3817582451310955e-08,
                0.3366301357746124,
                -3.040834073431142e-08
            ]
        },
        {
            "children" : [
                2
            ],
            "name" : "toe2A.L",
            "rotation" : [
                0.040162574499845505,
                0.8330337405204773,
                -0.5483791828155518,
                0.061010293662548065
            ],
            "scale" : [
                0.9999999403953552,
                1.0000003576278687,
                1.0000001192092896
            ],
            "translation" : [
                0.00351265468634665,
                0.0892275795340538,
                -0.20462682843208313
            ]
        },
        {
            "name" : "toe3B.L",
            "rotation" : [
                0.2106923758983612,
                2.2653411235751264e-07,
                -3.193160296177666e-07,
                0.9775524139404297
            ],
            "scale" : [
                1.000000238418579,
                1.0000003576278687,
                1.0000003576278687
            ],
            "translation" : [
                -2.2070217653435975e-08,
                0.32282423973083496,
                3.073368048944758e-08
            ]
        },
        {
            "children" : [
                4
            ],
            "name" : "toe3A.L",
            "rotation" : [
                0.1892789751291275,
                0.7873662710189819,
                -0.5081443786621094,
                0.2932868003845215
            ],
            "scale" : [
                1.0000003576278687,
                1.0000001192092896,
                0.9999999403953552
            ],
            "translation" : [
                0.14878392219543457,
                0.08846542239189148,
                -0.1434086710214615
            ]
        },
        {
            "name" : "toeCurl1.L",
            "rotation" : [
                0.1083805188536644,
                -0.8232621550559998,
                0.5313105583190918,
                0.16793516278266907
            ],
            "scale" : [
                0.9999999403953552,
                0.9999999403953552,
                0.9999998211860657
            ],
            "translation" : [
                -0.13102668523788452,
                -0.11933691054582596,
                -0.16309311985969543
            ]
        },
        {
            "name" : "toeCurl2.L",
            "rotation" : [
                0.040162574499845505,
                0.833033561706543,
                -0.5483793020248413,
                0.06101028993725777
            ],
            "scale" : [
                0.9999999403953552,
                0.9999998211860657,
                0.9999999403953552
            ],
            "translation" : [
                0.0035126525908708572,
                -0.11857476830482483,
                -0.20462681353092194
            ]
        },
        {
            "name" : "toeCurl3.L",
            "rotation" : [
                0.1892789751291275,
                0.7873663306236267,
                -0.5081443190574646,
                0.2932867705821991
            ],
            "scale" : [
                1.0000001192092896,
                1.0000001192092896,
                1.0000001192092896
            ],
            "translation" : [
                0.14878380298614502,
                -0.1193368136882782,
                -0.1434088945388794
            ]
        },
        {
            "children" : [
                1,
                3,
                5,
                6,
                7,
                8
            ],
            "name" : "ankle.L",
            "rotation" : [
                0.5586084723472595,
                -0.1682412028312683,
                -0.022172898054122925,
                0.811886727809906
            ],
            "scale" : [
                0.9999998807907104,
                1,
                1.000000238418579
            ],
            "translation" : [
                7.982477256973652e-08,
                1.3017659187316895,
                -1.6509886791027384e-07
            ]
        },
        {
            "children" : [
                9
            ],
            "name" : "legLow.L",
            "rotation" : [
                -0.766633152961731,
                -0.0017715919530019164,
                0.003574866335839033,
                0.6420730352401733
            ],
            "scale" : [
                0.9999998807907104,
                1.0000001192092896,
                0.9999998807907104
            ],
            "translation" : [
                2.3585194242059515e-08,
                0.6932503581047058,
                2.514956065624574e-07
            ]
        },
        {
            "children" : [
                10
            ],
            "name" : "legUp.L",
            "rotation" : [
                -0.007983916439116001,
                0.4325447082519531,
                0.9015274047851562,
                0.009473594836890697
            ],
            "scale" : [
                1.0000001192092896,
                0.9999995827674866,
                0.999999463558197
            ],
            "translation" : [
                -0.557913601398468,
                -0.03021974116563797,
                0.5633267164230347
            ]
        },
        {
            "name" : "toe1B.R",
            "rotation" : [
                0.21069246530532837,
                4.0848522786518515e-08,
                -2.9307074100870523e-08,
                0.9775524139404297
            ],
            "scale" : [
                0.9999997615814209,
                0.9999997019767761,
                0.9999998211860657
            ],
            "translation" : [
                2.1347673850868887e-08,
                0.32282406091690063,
                -5.807430536464153e-09
            ]
        },
        {
            "children" : [
                12
            ],
            "name" : "toe1A.R",
            "rotation" : [
                0.10838057100772858,
                0.8232622146606445,
                -0.531310498714447,
                0.16793504357337952
            ],
            "scale" : [
                0.9999997615814209,
                0.9999998807907104,
                0.9999997615814209
            ],
            "translation" : [
                0.1310267299413681,
                0.08846542239189148,
                -0.16309301555156708
            ]
        },
        {
            "name" : "toe2B.R",
            "rotation" : [
                0.20182016491889954,
                -9.799888900374754e-09,
                2.4173698420781875e-07,
                0.9794226288795471
            ],
            "scale" : [
                0.9999998807907104,
                0.9999998807907104,
                0.9999999403953552
            ],
            "translation" : [
                -1.1528026533369484e-08,
                0.33663007616996765,
                -5.890949061893025e-09
            ]
        },
        {
            "children" : [
                14
            ],
            "name" : "toe2A.R",
            "rotation" : [
                0.04016262665390968,
                -0.8330337405204773,
                0.5483791828155518,
                0.06101028993725777
            ],
            "scale" : [
                0.9999997615814209,
                0.9999998807907104,
                0.9999998807907104
            ],
            "translation" : [
                -0.0035125429276376963,
                0.08922764658927917,
                -0.20462670922279358
            ]
        },
        {
            "name" : "toe3B.R",
            "rotation" : [
                0.21069243550300598,
                -1.785779204510618e-07,
                3.491306870273547e-07,
                0.9775524139404297
            ],
            "scale" : [
                1,
                1.0000001192092896,
                1
            ],
            "translation" : [
                -4.985813006896933e-08,
                0.3228241801261902,
                -3.385838454050827e-08
            ]
        },
        {
            "children" : [
                16
            ],
            "name" : "toe3A.R",
            "rotation" : [
                0.18927904963493347,
                -0.7873662710189819,
                0.5081443190574646,
                0.29328683018684387
            ],
            "scale" : [
                0.9999998807907104,
                1.0000004768371582,
                1.0000001192092896
            ],
            "translation" : [
                -0.1487838327884674,
                0.08846542239189148,
                -0.143408864736557
            ]
        },
        {
            "name" : "toeCurl1.R",
            "rotation" : [
                0.10838057100772858,
                0.8232622146606445,
                -0.5313104391098022,
                0.16793504357337952
            ],
            "scale" : [
                0.9999998211860657,
                0.9999999403953552,
                0.9999999403953552
            ],
            "translation" : [
                0.1310267299413681,
                -0.1193368136882782,
                -0.1630929559469223
            ]
        },
        {
            "name" : "toeCurl2.R",
            "rotation" : [
                0.0401625782251358,
                -0.8330336809158325,
                0.5483792424201965,
                0.06101039797067642
            ],
            "scale" : [
                0.9999998211860657,
                1,
                0.9999999403953552
            ],
            "translation" : [
                -0.003512490540742874,
                -0.11857455968856812,
                -0.20462678372859955
            ]
        },
        {
            "name" : "toeCurl3.R",
            "rotation" : [
                0.18927909433841705,
                -0.7873662710189819,
                0.5081443190574646,
                0.29328683018684387
            ],
            "scale" : [
                0.9999999403953552,
                1,
                1
            ],
            "translation" : [
                -0.1487838327884674,
                -0.11933678388595581,
                -0.1434088945388794
            ]
        },
        {
            "children" : [
                13,
                15,
                17,
                18,
                19,
                20
            ],
            "name" : "ankle.R",
            "rotation" : [
                0.2287130206823349,
                0.09225452691316605,
                0.03434794768691063,
                0.9685039520263672
            ],
            "scale" : [
                1,
                1.0000001192092896,
                0.9999999403953552
            ],
            "translation" : [
                5.117321677516884e-08,
                1.3017659187316895,
                2.5376337475790933e-08
            ]
        },
        {
            "children" : [
                21
            ],
            "name" : "legLow.R",
            "rotation" : [
                -0.5750882029533386,
                -6.574016879312694e-05,
                -0.0012577703455463052,
                0.8180904388427734
            ],
            "scale" : [
                1,
                0.9999999403953552,
                0.9999997615814209
            ],
            "translation" : [
                2.5718303930943875e-08,
                0.6932501792907715,
                -4.2627974039533e-08
            ]
        },
        {
            "children" : [
                22
            ],
            "name" : "legUp.R",
            "rotation" : [
                0.0006218017661012709,
                0.3972014784812927,
                0.9177308678627014,
                0.0008219556766562164
            ],
            "scale" : [
                0.9999999403953552,
                1.000001072883606,
                1.0000004768371582
            ],
            "translation" : [
                0.5579136610031128,
                -0.030219703912734985,
                0.5633265376091003
            ]
        },
        {
            "children" : [
                11,
                23
            ],
            "name" : "tent",
            "rotation" : [
                -4.235163726529543e-22,
                1,
                2.9802317058624794e-08,
                7.54978870531886e-08
            ],
            "scale" : [
                1,
                0.9999996423721313,
                0.9999998807907104
            ],
            "translation" : [
                0,
                2.016376495361328,
                0
            ]
        },
        {
            "name" : "legPointer.L",
            "rotation" : [
                0.995049238204956,
                0,
                -0.09938308596611023,
                0
            ],
            "translation" : [
                0.5145636200904846,
                0.40694308280944824,
                -0.22344274818897247
            ]
        },
        {
            "name" : "legPointer.R",
            "rotation" : [
                0.995049238204956,
                0,
                0.09938308596611023,
                0
            ],
            "translation" : [
                -0.5579135417938232,
                0.009059369564056396,
                -0.5694310069084167
            ]
        },
        {
            "mesh" : 0,
            "name" : "tentapplied",
            "skin" : 0
        },
        {
            "children" : [
                27,
                24,
                25,
                26
            ],
            "name" : "Armature"
        }
    ],
    "materials" : [
        {
            "doubleSided" : true,
            "name" : "Material",
            "pbrMetallicRoughness" : {
                "baseColorFactor" : [
                    0.6000000238418579,
                    0.6000000238418579,
                    0.6000000238418579,
                    1
                ],
                "metallicFactor" : 0,
                "roughnessFactor" : 0.5
            }
        }
    ],
    "meshes" : [
        {
            "name" : "Cube.003",
            "primitives" : [
                {
                    "attributes" : {
                        "POSITION" : 0,
                        "NORMAL" : 1,
                        "TEXCOORD_0" : 2,
                        "JOINTS_0" : 3,
                        "WEIGHTS_0" : 4
                    },
                    "indices" : 5,
                    "material" : 0
                }
            ]
        }
    ],
    "skins" : [
        {
            "inverseBindMatrices" : 6,
            "joints" : [
                24,
                11,
                10,
                9,
                1,
                0,
                3,
                2,
                5,
                4,
                6,
                7,
                8,
                23,
                22,
                21,
                13,
                12,
                15,
                14,
                17,
                16,
                18,
                19,
                20,
                25,
                26
            ],
            "name" : "Armature"
        }
    ],
    "accessors" : [
        {
            "bufferView" : 0,
            "componentType" : 5126,
            "count" : 368,
            "max" : [
                1.396217703819275,
                3.285266160964966,
                0.9371984004974365
            ],
            "min" : [
                -1.396217703819275,
                0.00026942789554595947,
                -1.6249440908432007
            ],
            "type" : "VEC3"
        },
        {
            "bufferView" : 1,
            "componentType" : 5126,
            "count" : 368,
            "type" : "VEC3"
        },
        {
            "bufferView" : 2,
            "componentType" : 5126,
            "count" : 368,
            "type" : "VEC2"
        },
        {
            "bufferView" : 3,
            "componentType" : 5121,
            "count" : 368,
            "type" : "VEC4"
        },
        {
            "bufferView" : 4,
            "componentType" : 5126,
            "count" : 368,
            "type" : "VEC4"
        },
        {
            "bufferView" : 5,
            "componentType" : 5123,
            "count" : 1452,
            "type" : "SCALAR"
        },
        {
            "bufferView" : 6,
            "componentType" : 5126,
            "count" : 27,
            "type" : "MAT4"
        }
    ],
    "bufferViews" : [
        {
            "buffer" : 0,
            "byteLength" : 4416,
            "byteOffset" : 0
        },
        {
            "buffer" : 0,
            "byteLength" : 4416,
            "byteOffset" : 4416
        },
        {
            "buffer" : 0,
            "byteLength" : 2944,
            "byteOffset" : 8832
        },
        {
            "buffer" : 0,
            "byteLength" : 1472,
            "byteOffset" : 11776
        },
        {
            "buffer" : 0,
            "byteLength" : 5888,
            "byteOffset" : 13248
        },
        {
            "buffer" : 0,
            "byteLength" : 2904,
            "byteOffset" : 19136
        },
        {
            "buffer" : 0,
            "byteLength" : 1728,
            "byteOffset" : 22040
        }
    ],
    "buffers" : [
        {
            "byteLength" : 23768,
            "uri" : "thatchedTent.bin"
        }
    ]
}
